<mxfile host="app.diagrams.net" agent="Mozilla/5.0 (Windows NT 10.0; Win64; x64) AppleWebKit/537.36 (KHTML, like Gecko) Chrome/131.0.0.0 Safari/537.36 Edg/131.0.0.0" version="25.0.3">
  <diagram name="第 1 页" id="iGaQo6PPJgDkWrGs2-yL">
    <mxGraphModel dx="3225" dy="1969" grid="0" gridSize="10" guides="0" tooltips="1" connect="1" arrows="1" fold="1" page="0" pageScale="1" pageWidth="827" pageHeight="1169" math="0" shadow="0">
      <root>
        <mxCell id="0" />
        <mxCell id="1" parent="0" />
        <mxCell id="6wLO1wM4Qv6k_STgGtqq-7" value="" style="whiteSpace=wrap;html=1;rounded=1;shadow=0;glass=0;sketch=1;jiggle=2;fillStyle=hatch;curveFitting=1;strokeColor=#9a9fa1;strokeWidth=2;align=center;verticalAlign=middle;fontFamily=Helvetica;fontSize=12;fontColor=default;labelBorderColor=none;fillColor=#dff2f9;gradientColor=none;arcSize=21;imageAspect=0;" vertex="1" parent="1">
          <mxGeometry x="1545" y="-69" width="336" height="211" as="geometry" />
        </mxCell>
        <mxCell id="6wLO1wM4Qv6k_STgGtqq-10" value="" style="whiteSpace=wrap;html=1;rounded=1;shadow=0;glass=0;sketch=1;jiggle=2;fillStyle=hatch;curveFitting=1;strokeColor=#9a9fa1;strokeWidth=2;align=center;verticalAlign=middle;fontFamily=Helvetica;fontSize=12;fontColor=default;labelBorderColor=none;fillColor=#dff2f9;gradientColor=none;arcSize=21;imageAspect=0;" vertex="1" parent="1">
          <mxGeometry x="1549" y="264" width="336" height="211" as="geometry" />
        </mxCell>
        <mxCell id="ki8LtiAd6n3yGq_93ToQ-1" value="" style="whiteSpace=wrap;html=1;rounded=1;shadow=0;glass=0;sketch=1;jiggle=2;fillStyle=hatch;curveFitting=1;strokeColor=#9a9fa1;strokeWidth=2;align=center;verticalAlign=middle;fontFamily=Helvetica;fontSize=12;fontColor=default;labelBorderColor=none;fillColor=#dff2f9;gradientColor=none;arcSize=21;imageAspect=0;" parent="1" vertex="1">
          <mxGeometry x="222" y="-83" width="1075" height="742" as="geometry" />
        </mxCell>
        <mxCell id="ki8LtiAd6n3yGq_93ToQ-2" style="edgeStyle=orthogonalEdgeStyle;rounded=1;orthogonalLoop=1;jettySize=auto;html=1;exitX=1;exitY=0.5;exitDx=0;exitDy=0;entryX=0;entryY=0.5;entryDx=0;entryDy=0;curved=0;sketch=1;curveFitting=1;jiggle=2;strokeWidth=3;" parent="1" source="ki8LtiAd6n3yGq_93ToQ-3" target="ki8LtiAd6n3yGq_93ToQ-5" edge="1">
          <mxGeometry relative="1" as="geometry">
            <mxPoint x="141" y="219" as="targetPoint" />
          </mxGeometry>
        </mxCell>
        <mxCell id="ki8LtiAd6n3yGq_93ToQ-3" value="&lt;font style=&quot;font-size: 24px;&quot; face=&quot;Comic Sans MS&quot;&gt;&lt;b style=&quot;&quot;&gt;Load Documents&lt;/b&gt;&lt;/font&gt;" style="rounded=1;whiteSpace=wrap;html=1;gradientColor=none;textShadow=0;fillStyle=hatch;fillColor=#f7d036;glass=0;shadow=0;labelBorderColor=none;strokeColor=#ddc374;strokeWidth=2;perimeterSpacing=0;sketch=1;curveFitting=1;jiggle=2;" parent="1" vertex="1">
          <mxGeometry x="-15" y="-38" width="181" height="103" as="geometry" />
        </mxCell>
        <mxCell id="ki8LtiAd6n3yGq_93ToQ-4" style="edgeStyle=orthogonalEdgeStyle;rounded=0;orthogonalLoop=1;jettySize=auto;html=1;exitX=1;exitY=0.5;exitDx=0;exitDy=0;entryX=0;entryY=0.5;entryDx=0;entryDy=0;sketch=1;curveFitting=1;jiggle=2;strokeWidth=3;" parent="1" source="ki8LtiAd6n3yGq_93ToQ-5" target="ki8LtiAd6n3yGq_93ToQ-7" edge="1">
          <mxGeometry relative="1" as="geometry" />
        </mxCell>
        <mxCell id="ki8LtiAd6n3yGq_93ToQ-5" value="&lt;font style=&quot;font-size: 24px;&quot; face=&quot;Comic Sans MS&quot;&gt;&lt;b style=&quot;&quot;&gt;Unsturctured Loader&lt;/b&gt;&lt;/font&gt;" style="ellipse;whiteSpace=wrap;html=1;fillColor=#86c785;strokeColor=#378b3a;fillStyle=hatch;strokeWidth=2;perimeterSpacing=0;sketch=1;curveFitting=1;jiggle=2;" parent="1" vertex="1">
          <mxGeometry x="266" y="-40.75" width="170" height="108.5" as="geometry" />
        </mxCell>
        <mxCell id="ki8LtiAd6n3yGq_93ToQ-6" style="edgeStyle=orthogonalEdgeStyle;shape=connector;rounded=0;sketch=1;jiggle=2;curveFitting=1;orthogonalLoop=1;jettySize=auto;html=1;exitX=1;exitY=0.5;exitDx=0;exitDy=0;entryX=0;entryY=0.5;entryDx=0;entryDy=0;strokeColor=default;strokeWidth=3;align=center;verticalAlign=middle;fontFamily=Helvetica;fontSize=11;fontColor=default;labelBackgroundColor=default;endArrow=classic;" parent="1" source="ki8LtiAd6n3yGq_93ToQ-7" target="ki8LtiAd6n3yGq_93ToQ-9" edge="1">
          <mxGeometry relative="1" as="geometry" />
        </mxCell>
        <mxCell id="ki8LtiAd6n3yGq_93ToQ-7" value="&lt;font style=&quot;font-size: 24px;&quot; face=&quot;Comic Sans MS&quot;&gt;&lt;b style=&quot;&quot;&gt;Load Documents&lt;/b&gt;&lt;/font&gt;" style="rounded=1;whiteSpace=wrap;html=1;gradientColor=none;textShadow=0;fillStyle=hatch;fillColor=#f7d036;glass=0;shadow=0;labelBorderColor=none;strokeColor=#ddc374;strokeWidth=2;perimeterSpacing=0;sketch=1;curveFitting=1;jiggle=2;" parent="1" vertex="1">
          <mxGeometry x="530" y="-38" width="181" height="103" as="geometry" />
        </mxCell>
        <mxCell id="ki8LtiAd6n3yGq_93ToQ-8" style="edgeStyle=orthogonalEdgeStyle;shape=connector;rounded=0;sketch=1;jiggle=2;curveFitting=1;orthogonalLoop=1;jettySize=auto;html=1;exitX=1;exitY=0.5;exitDx=0;exitDy=0;entryX=0;entryY=0.5;entryDx=0;entryDy=0;strokeColor=default;strokeWidth=3;align=center;verticalAlign=middle;fontFamily=Helvetica;fontSize=12;fontColor=default;labelBorderColor=none;labelBackgroundColor=default;endArrow=classic;" parent="1" source="ki8LtiAd6n3yGq_93ToQ-9" target="ki8LtiAd6n3yGq_93ToQ-10" edge="1">
          <mxGeometry relative="1" as="geometry" />
        </mxCell>
        <mxCell id="ki8LtiAd6n3yGq_93ToQ-9" value="&lt;font style=&quot;font-size: 24px;&quot; face=&quot;Comic Sans MS&quot;&gt;&lt;b style=&quot;&quot;&gt;Unsturctured Loader&lt;/b&gt;&lt;/font&gt;" style="ellipse;whiteSpace=wrap;html=1;fillColor=#86c785;strokeColor=#378b3a;fillStyle=hatch;strokeWidth=2;perimeterSpacing=0;sketch=1;curveFitting=1;jiggle=2;" parent="1" vertex="1">
          <mxGeometry x="816" y="-40.75" width="170" height="108.5" as="geometry" />
        </mxCell>
        <mxCell id="ki8LtiAd6n3yGq_93ToQ-10" value="&lt;font style=&quot;font-size: 24px;&quot; face=&quot;Comic Sans MS&quot;&gt;&lt;b style=&quot;&quot;&gt;Text&lt;/b&gt;&lt;/font&gt;&lt;div&gt;&lt;font style=&quot;font-size: 24px;&quot; face=&quot;Comic Sans MS&quot;&gt;&lt;b style=&quot;&quot;&gt;Chunks&lt;/b&gt;&lt;/font&gt;&lt;/div&gt;" style="rounded=1;whiteSpace=wrap;html=1;gradientColor=none;textShadow=0;fillStyle=hatch;fillColor=#fad7ac;glass=0;shadow=0;labelBorderColor=none;strokeColor=#b8782e;strokeWidth=2;perimeterSpacing=0;sketch=1;curveFitting=1;jiggle=2;" parent="1" vertex="1">
          <mxGeometry x="1066" y="-38" width="161" height="105" as="geometry" />
        </mxCell>
        <mxCell id="ki8LtiAd6n3yGq_93ToQ-11" value="&lt;font style=&quot;font-size: 24px;&quot; face=&quot;Comic Sans MS&quot;&gt;&lt;b style=&quot;&quot;&gt;Embedding&lt;/b&gt;&lt;/font&gt;" style="ellipse;whiteSpace=wrap;html=1;fillColor=#cdecf1;strokeColor=#75bbbf;fillStyle=hatch;strokeWidth=2;perimeterSpacing=0;sketch=1;curveFitting=1;jiggle=2;" parent="1" vertex="1">
          <mxGeometry x="1074" y="156" width="161" height="93" as="geometry" />
        </mxCell>
        <mxCell id="ki8LtiAd6n3yGq_93ToQ-12" style="edgeStyle=orthogonalEdgeStyle;shape=connector;rounded=0;sketch=1;jiggle=2;curveFitting=1;orthogonalLoop=1;jettySize=auto;html=1;exitX=0.5;exitY=1;exitDx=0;exitDy=0;entryX=0.449;entryY=0.05;entryDx=0;entryDy=0;entryPerimeter=0;strokeColor=default;strokeWidth=3;align=center;verticalAlign=middle;fontFamily=Helvetica;fontSize=12;fontColor=default;labelBorderColor=none;labelBackgroundColor=default;endArrow=classic;" parent="1" source="ki8LtiAd6n3yGq_93ToQ-10" target="ki8LtiAd6n3yGq_93ToQ-11" edge="1">
          <mxGeometry relative="1" as="geometry" />
        </mxCell>
        <mxCell id="ki8LtiAd6n3yGq_93ToQ-13" style="edgeStyle=orthogonalEdgeStyle;shape=connector;rounded=0;sketch=1;jiggle=2;curveFitting=1;orthogonalLoop=1;jettySize=auto;html=1;exitX=0;exitY=0.5;exitDx=0;exitDy=0;strokeColor=default;strokeWidth=3;align=center;verticalAlign=middle;fontFamily=Helvetica;fontSize=12;fontColor=default;labelBorderColor=none;labelBackgroundColor=default;endArrow=classic;" parent="1" source="ki8LtiAd6n3yGq_93ToQ-14" target="ki8LtiAd6n3yGq_93ToQ-17" edge="1">
          <mxGeometry relative="1" as="geometry" />
        </mxCell>
        <mxCell id="ki8LtiAd6n3yGq_93ToQ-14" value="&lt;font style=&quot;font-size: 24px;&quot; face=&quot;Comic Sans MS&quot;&gt;&lt;b style=&quot;&quot;&gt;VectorStore&lt;/b&gt;&lt;/font&gt;" style="rounded=1;whiteSpace=wrap;html=1;gradientColor=none;textShadow=0;fillStyle=hatch;fillColor=#f8cdcc;glass=0;shadow=0;labelBorderColor=none;strokeColor=#b43427;strokeWidth=2;perimeterSpacing=0;sketch=1;curveFitting=1;jiggle=2;" parent="1" vertex="1">
          <mxGeometry x="1077" y="338" width="178" height="91" as="geometry" />
        </mxCell>
        <mxCell id="ki8LtiAd6n3yGq_93ToQ-15" style="edgeStyle=orthogonalEdgeStyle;shape=connector;rounded=0;sketch=1;jiggle=2;curveFitting=1;orthogonalLoop=1;jettySize=auto;html=1;exitX=0.5;exitY=1;exitDx=0;exitDy=0;entryX=0.433;entryY=0.021;entryDx=0;entryDy=0;entryPerimeter=0;strokeColor=default;strokeWidth=3;align=center;verticalAlign=middle;fontFamily=Helvetica;fontSize=12;fontColor=default;labelBorderColor=none;labelBackgroundColor=default;endArrow=classic;" parent="1" source="ki8LtiAd6n3yGq_93ToQ-11" target="ki8LtiAd6n3yGq_93ToQ-14" edge="1">
          <mxGeometry relative="1" as="geometry" />
        </mxCell>
        <mxCell id="ki8LtiAd6n3yGq_93ToQ-16" style="edgeStyle=orthogonalEdgeStyle;shape=connector;rounded=0;sketch=1;jiggle=2;curveFitting=1;orthogonalLoop=1;jettySize=auto;html=1;exitX=0.5;exitY=1;exitDx=0;exitDy=0;entryX=0.5;entryY=0;entryDx=0;entryDy=0;strokeColor=default;strokeWidth=3;align=center;verticalAlign=middle;fontFamily=Helvetica;fontSize=12;fontColor=default;labelBorderColor=none;labelBackgroundColor=default;endArrow=classic;" parent="1" source="ki8LtiAd6n3yGq_93ToQ-17" target="ki8LtiAd6n3yGq_93ToQ-25" edge="1">
          <mxGeometry relative="1" as="geometry" />
        </mxCell>
        <mxCell id="ki8LtiAd6n3yGq_93ToQ-17" value="&lt;font style=&quot;font-size: 24px;&quot; face=&quot;Comic Sans MS&quot;&gt;&lt;b style=&quot;&quot;&gt;Vector&lt;/b&gt;&lt;/font&gt;&lt;div&gt;&lt;font style=&quot;font-size: 24px;&quot; face=&quot;Comic Sans MS&quot;&gt;&lt;b style=&quot;&quot;&gt;Similarity&lt;/b&gt;&lt;/font&gt;&lt;/div&gt;" style="ellipse;whiteSpace=wrap;html=1;fillColor=#cdecf1;strokeColor=#75bbbf;fillStyle=hatch;strokeWidth=2;perimeterSpacing=0;sketch=1;curveFitting=1;jiggle=2;" parent="1" vertex="1">
          <mxGeometry x="833" y="337" width="161" height="93" as="geometry" />
        </mxCell>
        <mxCell id="ki8LtiAd6n3yGq_93ToQ-18" style="edgeStyle=orthogonalEdgeStyle;shape=connector;rounded=0;sketch=1;jiggle=2;curveFitting=1;orthogonalLoop=1;jettySize=auto;html=1;exitX=1;exitY=0.5;exitDx=0;exitDy=0;strokeColor=default;strokeWidth=3;align=center;verticalAlign=middle;fontFamily=Helvetica;fontSize=12;fontColor=default;labelBorderColor=none;labelBackgroundColor=default;endArrow=classic;" parent="1" source="ki8LtiAd6n3yGq_93ToQ-19" target="ki8LtiAd6n3yGq_93ToQ-17" edge="1">
          <mxGeometry relative="1" as="geometry" />
        </mxCell>
        <mxCell id="ki8LtiAd6n3yGq_93ToQ-19" value="&lt;font style=&quot;font-size: 24px;&quot; face=&quot;Comic Sans MS&quot;&gt;&lt;b style=&quot;&quot;&gt;Query&lt;/b&gt;&lt;/font&gt;&lt;div&gt;&lt;font style=&quot;font-size: 24px;&quot; face=&quot;Comic Sans MS&quot;&gt;&lt;b style=&quot;&quot;&gt;Vector&lt;/b&gt;&lt;/font&gt;&lt;/div&gt;" style="rounded=1;whiteSpace=wrap;html=1;gradientColor=none;textShadow=0;fillStyle=hatch;fillColor=#d9e7fc;glass=0;shadow=0;labelBorderColor=none;strokeColor=#6a8ebf;strokeWidth=2;perimeterSpacing=0;sketch=1;curveFitting=1;jiggle=2;" parent="1" vertex="1">
          <mxGeometry x="530" y="332" width="181" height="103" as="geometry" />
        </mxCell>
        <mxCell id="ki8LtiAd6n3yGq_93ToQ-20" style="edgeStyle=orthogonalEdgeStyle;shape=connector;rounded=0;sketch=1;jiggle=2;curveFitting=1;orthogonalLoop=1;jettySize=auto;html=1;exitX=1;exitY=0.5;exitDx=0;exitDy=0;entryX=0;entryY=0.5;entryDx=0;entryDy=0;strokeColor=default;strokeWidth=3;align=center;verticalAlign=middle;fontFamily=Helvetica;fontSize=12;fontColor=default;labelBorderColor=none;labelBackgroundColor=default;endArrow=classic;" parent="1" source="ki8LtiAd6n3yGq_93ToQ-21" target="ki8LtiAd6n3yGq_93ToQ-19" edge="1">
          <mxGeometry relative="1" as="geometry" />
        </mxCell>
        <mxCell id="ki8LtiAd6n3yGq_93ToQ-21" value="&lt;font style=&quot;font-size: 24px;&quot; face=&quot;Comic Sans MS&quot;&gt;&lt;b style=&quot;&quot;&gt;Embedding&lt;/b&gt;&lt;/font&gt;" style="ellipse;whiteSpace=wrap;html=1;fillColor=#cdecf1;strokeColor=#75bbbf;fillStyle=hatch;strokeWidth=2;perimeterSpacing=0;sketch=1;curveFitting=1;jiggle=2;" parent="1" vertex="1">
          <mxGeometry x="275" y="336" width="161" height="93" as="geometry" />
        </mxCell>
        <mxCell id="ki8LtiAd6n3yGq_93ToQ-22" style="edgeStyle=orthogonalEdgeStyle;shape=connector;rounded=0;sketch=1;jiggle=2;curveFitting=1;orthogonalLoop=1;jettySize=auto;html=1;exitX=1;exitY=0.5;exitDx=0;exitDy=0;entryX=0;entryY=0.5;entryDx=0;entryDy=0;strokeColor=default;strokeWidth=3;align=center;verticalAlign=middle;fontFamily=Helvetica;fontSize=12;fontColor=default;labelBorderColor=none;labelBackgroundColor=default;endArrow=classic;" parent="1" source="ki8LtiAd6n3yGq_93ToQ-23" target="ki8LtiAd6n3yGq_93ToQ-21" edge="1">
          <mxGeometry relative="1" as="geometry" />
        </mxCell>
        <mxCell id="ki8LtiAd6n3yGq_93ToQ-23" value="&lt;font style=&quot;font-size: 24px;&quot; face=&quot;Comic Sans MS&quot;&gt;&lt;b style=&quot;&quot;&gt;Query&lt;/b&gt;&lt;/font&gt;" style="rounded=1;whiteSpace=wrap;html=1;gradientColor=none;textShadow=0;fillStyle=hatch;fillColor=#cfcde1;glass=0;shadow=0;labelBorderColor=none;strokeColor=#0f0b65;strokeWidth=2;perimeterSpacing=0;sketch=1;curveFitting=1;jiggle=2;" parent="1" vertex="1">
          <mxGeometry x="-15" y="331" width="158" height="101" as="geometry" />
        </mxCell>
        <mxCell id="ki8LtiAd6n3yGq_93ToQ-24" style="edgeStyle=orthogonalEdgeStyle;shape=connector;rounded=0;sketch=1;jiggle=2;curveFitting=1;orthogonalLoop=1;jettySize=auto;html=1;strokeColor=default;strokeWidth=3;align=center;verticalAlign=middle;fontFamily=Helvetica;fontSize=12;fontColor=default;labelBorderColor=none;labelBackgroundColor=default;endArrow=classic;" parent="1" source="ki8LtiAd6n3yGq_93ToQ-25" target="ki8LtiAd6n3yGq_93ToQ-27" edge="1">
          <mxGeometry relative="1" as="geometry" />
        </mxCell>
        <mxCell id="ki8LtiAd6n3yGq_93ToQ-25" value="&lt;font style=&quot;font-size: 24px;&quot; face=&quot;Comic Sans MS&quot;&gt;&lt;b style=&quot;&quot;&gt;Related&lt;/b&gt;&lt;/font&gt;&lt;div&gt;&lt;font style=&quot;font-size: 24px;&quot; face=&quot;Comic Sans MS&quot;&gt;&lt;b style=&quot;&quot;&gt;Text Chunks&lt;/b&gt;&lt;/font&gt;&lt;/div&gt;" style="rounded=1;whiteSpace=wrap;html=1;gradientColor=none;textShadow=0;fillStyle=hatch;fillColor=#f8cdcc;glass=0;shadow=0;labelBorderColor=none;strokeColor=#b43427;strokeWidth=2;perimeterSpacing=0;sketch=1;curveFitting=1;jiggle=2;" parent="1" vertex="1">
          <mxGeometry x="824.5" y="516" width="178" height="91" as="geometry" />
        </mxCell>
        <mxCell id="ki8LtiAd6n3yGq_93ToQ-26" value="" style="edgeStyle=orthogonalEdgeStyle;shape=connector;rounded=0;sketch=1;jiggle=2;curveFitting=1;orthogonalLoop=1;jettySize=auto;html=1;strokeColor=default;strokeWidth=3;align=center;verticalAlign=middle;fontFamily=Helvetica;fontSize=12;fontColor=default;labelBorderColor=none;labelBackgroundColor=default;endArrow=classic;" parent="1" source="ki8LtiAd6n3yGq_93ToQ-27" target="ki8LtiAd6n3yGq_93ToQ-29" edge="1">
          <mxGeometry relative="1" as="geometry" />
        </mxCell>
        <mxCell id="ki8LtiAd6n3yGq_93ToQ-27" value="&lt;font face=&quot;Comic Sans MS&quot;&gt;&lt;span style=&quot;font-size: 24px;&quot;&gt;&lt;b&gt;Prompt&lt;/b&gt;&lt;/span&gt;&lt;/font&gt;&lt;div&gt;&lt;font face=&quot;Comic Sans MS&quot;&gt;&lt;span style=&quot;font-size: 24px;&quot;&gt;&lt;b&gt;Template&lt;/b&gt;&lt;/span&gt;&lt;/font&gt;&lt;/div&gt;" style="ellipse;whiteSpace=wrap;html=1;fillColor=#e7e6f1;strokeColor=#908f8f;fillStyle=hatch;strokeWidth=2;perimeterSpacing=0;sketch=1;curveFitting=1;jiggle=2;" parent="1" vertex="1">
          <mxGeometry x="530" y="516" width="161" height="93" as="geometry" />
        </mxCell>
        <mxCell id="ki8LtiAd6n3yGq_93ToQ-28" style="edgeStyle=orthogonalEdgeStyle;shape=connector;rounded=0;sketch=1;jiggle=2;curveFitting=1;orthogonalLoop=1;jettySize=auto;html=1;exitX=0.5;exitY=1;exitDx=0;exitDy=0;strokeColor=default;strokeWidth=3;align=center;verticalAlign=middle;fontFamily=Helvetica;fontSize=12;fontColor=default;labelBorderColor=none;labelBackgroundColor=default;endArrow=classic;" parent="1" source="ki8LtiAd6n3yGq_93ToQ-29" target="ki8LtiAd6n3yGq_93ToQ-31" edge="1">
          <mxGeometry relative="1" as="geometry" />
        </mxCell>
        <mxCell id="ki8LtiAd6n3yGq_93ToQ-29" value="&lt;font face=&quot;Comic Sans MS&quot;&gt;&lt;span style=&quot;font-size: 24px;&quot;&gt;&lt;b&gt;Prompt&lt;/b&gt;&lt;/span&gt;&lt;/font&gt;" style="rounded=1;whiteSpace=wrap;html=1;gradientColor=none;textShadow=0;fillStyle=hatch;fillColor=#f8cdcc;glass=0;shadow=0;labelBorderColor=none;strokeColor=#b43427;strokeWidth=2;perimeterSpacing=0;sketch=1;curveFitting=1;jiggle=2;" parent="1" vertex="1">
          <mxGeometry x="273" y="518" width="178" height="91" as="geometry" />
        </mxCell>
        <mxCell id="ki8LtiAd6n3yGq_93ToQ-30" value="" style="edgeStyle=orthogonalEdgeStyle;shape=connector;rounded=0;sketch=1;jiggle=2;curveFitting=1;orthogonalLoop=1;jettySize=auto;html=1;strokeColor=default;strokeWidth=3;align=center;verticalAlign=middle;fontFamily=Helvetica;fontSize=12;fontColor=default;labelBorderColor=none;labelBackgroundColor=default;endArrow=classic;" parent="1" source="ki8LtiAd6n3yGq_93ToQ-31" target="ki8LtiAd6n3yGq_93ToQ-32" edge="1">
          <mxGeometry relative="1" as="geometry" />
        </mxCell>
        <mxCell id="ki8LtiAd6n3yGq_93ToQ-31" value="&lt;font face=&quot;Comic Sans MS&quot;&gt;&lt;span style=&quot;font-size: 24px;&quot;&gt;&lt;b&gt;LLM&lt;/b&gt;&lt;/span&gt;&lt;/font&gt;" style="ellipse;whiteSpace=wrap;html=1;fillColor=#e7e6f1;strokeColor=#908f8f;fillStyle=hatch;strokeWidth=2;perimeterSpacing=0;sketch=1;curveFitting=1;jiggle=2;" parent="1" vertex="1">
          <mxGeometry x="281.5" y="702" width="161" height="93" as="geometry" />
        </mxCell>
        <mxCell id="ki8LtiAd6n3yGq_93ToQ-32" value="&lt;font face=&quot;Comic Sans MS&quot;&gt;&lt;span style=&quot;font-size: 24px;&quot;&gt;&lt;b&gt;Answer&lt;/b&gt;&lt;/span&gt;&lt;/font&gt;" style="rounded=1;whiteSpace=wrap;html=1;gradientColor=none;textShadow=0;fillStyle=hatch;fillColor=#f8cdcc;glass=0;shadow=0;labelBorderColor=none;strokeColor=#b43427;strokeWidth=2;perimeterSpacing=0;sketch=1;curveFitting=1;jiggle=2;" parent="1" vertex="1">
          <mxGeometry x="-15" y="703" width="178" height="91" as="geometry" />
        </mxCell>
        <mxCell id="ki8LtiAd6n3yGq_93ToQ-33" value="&lt;font face=&quot;Comic Sans MS&quot; style=&quot;font-size: 36px;&quot;&gt;LangChain&lt;/font&gt;" style="text;html=1;align=center;verticalAlign=middle;whiteSpace=wrap;rounded=0;fontFamily=Helvetica;fontSize=12;fontColor=default;labelBorderColor=none;" parent="1" vertex="1">
          <mxGeometry x="1019" y="543" width="302" height="76" as="geometry" />
        </mxCell>
        <mxCell id="ki8LtiAd6n3yGq_93ToQ-34" value="&lt;font face=&quot;Comic Sans MS&quot; style=&quot;font-size: 24px;&quot;&gt;&lt;b&gt;1&lt;/b&gt;&lt;/font&gt;" style="text;html=1;align=center;verticalAlign=middle;whiteSpace=wrap;rounded=0;fontFamily=Helvetica;fontSize=12;fontColor=default;labelBorderColor=none;" parent="1" vertex="1">
          <mxGeometry x="170" y="-30" width="92" height="40" as="geometry" />
        </mxCell>
        <mxCell id="ki8LtiAd6n3yGq_93ToQ-35" value="&lt;font face=&quot;Comic Sans MS&quot; style=&quot;font-size: 24px;&quot;&gt;&lt;b&gt;2&lt;/b&gt;&lt;/font&gt;" style="text;html=1;align=center;verticalAlign=middle;whiteSpace=wrap;rounded=0;fontFamily=Helvetica;fontSize=12;fontColor=default;labelBorderColor=none;" parent="1" vertex="1">
          <mxGeometry x="428" y="-30" width="92" height="40" as="geometry" />
        </mxCell>
        <mxCell id="ki8LtiAd6n3yGq_93ToQ-36" value="&lt;font face=&quot;Comic Sans MS&quot; style=&quot;font-size: 24px;&quot;&gt;&lt;b&gt;3&lt;/b&gt;&lt;/font&gt;" style="text;html=1;align=center;verticalAlign=middle;whiteSpace=wrap;rounded=0;fontFamily=Helvetica;fontSize=12;fontColor=default;labelBorderColor=none;" parent="1" vertex="1">
          <mxGeometry x="713.5" y="-30" width="92" height="40" as="geometry" />
        </mxCell>
        <mxCell id="ki8LtiAd6n3yGq_93ToQ-37" value="&lt;font face=&quot;Comic Sans MS&quot; style=&quot;font-size: 24px;&quot;&gt;&lt;b&gt;4&lt;/b&gt;&lt;/font&gt;" style="text;html=1;align=center;verticalAlign=middle;whiteSpace=wrap;rounded=0;fontFamily=Helvetica;fontSize=12;fontColor=default;labelBorderColor=none;" parent="1" vertex="1">
          <mxGeometry x="971" y="-27" width="92" height="40" as="geometry" />
        </mxCell>
        <mxCell id="ki8LtiAd6n3yGq_93ToQ-38" value="&lt;font face=&quot;Comic Sans MS&quot; style=&quot;font-size: 24px;&quot;&gt;&lt;b&gt;5&lt;/b&gt;&lt;/font&gt;" style="text;html=1;align=center;verticalAlign=middle;whiteSpace=wrap;rounded=0;fontFamily=Helvetica;fontSize=12;fontColor=default;labelBorderColor=none;" parent="1" vertex="1">
          <mxGeometry x="1132" y="95" width="92" height="40" as="geometry" />
        </mxCell>
        <mxCell id="ki8LtiAd6n3yGq_93ToQ-39" value="&lt;font face=&quot;Comic Sans MS&quot; style=&quot;font-size: 24px;&quot;&gt;&lt;b&gt;6&lt;/b&gt;&lt;/font&gt;" style="text;html=1;align=center;verticalAlign=middle;whiteSpace=wrap;rounded=0;fontFamily=Helvetica;fontSize=12;fontColor=default;labelBorderColor=none;" parent="1" vertex="1">
          <mxGeometry x="1132" y="273" width="92" height="40" as="geometry" />
        </mxCell>
        <mxCell id="ki8LtiAd6n3yGq_93ToQ-40" value="&lt;font face=&quot;Comic Sans MS&quot; style=&quot;font-size: 24px;&quot;&gt;&lt;b&gt;7&lt;/b&gt;&lt;/font&gt;" style="text;html=1;align=center;verticalAlign=middle;whiteSpace=wrap;rounded=0;fontFamily=Helvetica;fontSize=12;fontColor=default;labelBorderColor=none;" parent="1" vertex="1">
          <mxGeometry x="974" y="325" width="92" height="40" as="geometry" />
        </mxCell>
        <mxCell id="ki8LtiAd6n3yGq_93ToQ-41" value="&lt;font face=&quot;Comic Sans MS&quot; style=&quot;font-size: 24px;&quot;&gt;&lt;b&gt;8&lt;/b&gt;&lt;/font&gt;" style="text;html=1;align=center;verticalAlign=middle;whiteSpace=wrap;rounded=0;fontFamily=Helvetica;fontSize=12;fontColor=default;labelBorderColor=none;" parent="1" vertex="1">
          <mxGeometry x="163" y="332" width="92" height="40" as="geometry" />
        </mxCell>
        <mxCell id="ki8LtiAd6n3yGq_93ToQ-42" value="&lt;font face=&quot;Comic Sans MS&quot; style=&quot;font-size: 24px;&quot;&gt;&lt;b&gt;9&lt;/b&gt;&lt;/font&gt;" style="text;html=1;align=center;verticalAlign=middle;whiteSpace=wrap;rounded=0;fontFamily=Helvetica;fontSize=12;fontColor=default;labelBorderColor=none;" parent="1" vertex="1">
          <mxGeometry x="428" y="332" width="92" height="40" as="geometry" />
        </mxCell>
        <mxCell id="ki8LtiAd6n3yGq_93ToQ-43" value="&lt;font face=&quot;Comic Sans MS&quot; style=&quot;font-size: 24px;&quot;&gt;&lt;b&gt;10&lt;/b&gt;&lt;/font&gt;" style="text;html=1;align=center;verticalAlign=middle;whiteSpace=wrap;rounded=0;fontFamily=Helvetica;fontSize=12;fontColor=default;labelBorderColor=none;" parent="1" vertex="1">
          <mxGeometry x="738" y="332" width="92" height="40" as="geometry" />
        </mxCell>
        <mxCell id="ki8LtiAd6n3yGq_93ToQ-44" value="&lt;font face=&quot;Comic Sans MS&quot; style=&quot;font-size: 24px;&quot;&gt;&lt;b&gt;11&lt;/b&gt;&lt;/font&gt;" style="text;html=1;align=center;verticalAlign=middle;whiteSpace=wrap;rounded=0;fontFamily=Helvetica;fontSize=12;fontColor=default;labelBorderColor=none;" parent="1" vertex="1">
          <mxGeometry x="900" y="446" width="92" height="40" as="geometry" />
        </mxCell>
        <mxCell id="ki8LtiAd6n3yGq_93ToQ-45" value="&lt;font face=&quot;Comic Sans MS&quot; style=&quot;font-size: 24px;&quot;&gt;&lt;b&gt;12&lt;/b&gt;&lt;/font&gt;" style="text;html=1;align=center;verticalAlign=middle;whiteSpace=wrap;rounded=0;fontFamily=Helvetica;fontSize=12;fontColor=default;labelBorderColor=none;" parent="1" vertex="1">
          <mxGeometry x="686" y="508" width="92" height="40" as="geometry" />
        </mxCell>
        <mxCell id="ki8LtiAd6n3yGq_93ToQ-46" value="&lt;font face=&quot;Comic Sans MS&quot; style=&quot;font-size: 24px;&quot;&gt;&lt;b&gt;13&lt;/b&gt;&lt;/font&gt;" style="text;html=1;align=center;verticalAlign=middle;whiteSpace=wrap;rounded=0;fontFamily=Helvetica;fontSize=12;fontColor=default;labelBorderColor=none;" parent="1" vertex="1">
          <mxGeometry x="436" y="512" width="92" height="40" as="geometry" />
        </mxCell>
        <mxCell id="ki8LtiAd6n3yGq_93ToQ-47" value="&lt;font face=&quot;Comic Sans MS&quot; style=&quot;font-size: 24px;&quot;&gt;&lt;b&gt;14&lt;/b&gt;&lt;/font&gt;" style="text;html=1;align=center;verticalAlign=middle;whiteSpace=wrap;rounded=0;fontFamily=Helvetica;fontSize=12;fontColor=default;labelBorderColor=none;" parent="1" vertex="1">
          <mxGeometry x="346" y="636" width="92" height="40" as="geometry" />
        </mxCell>
        <mxCell id="ki8LtiAd6n3yGq_93ToQ-48" value="&lt;font face=&quot;Comic Sans MS&quot; style=&quot;font-size: 24px;&quot;&gt;&lt;b&gt;15&lt;/b&gt;&lt;/font&gt;" style="text;html=1;align=center;verticalAlign=middle;whiteSpace=wrap;rounded=0;fontFamily=Helvetica;fontSize=12;fontColor=default;labelBorderColor=none;" parent="1" vertex="1">
          <mxGeometry x="194" y="688" width="92" height="40" as="geometry" />
        </mxCell>
        <mxCell id="T2wt9KZi8Y2AyrN_D059-5" style="edgeStyle=orthogonalEdgeStyle;shape=connector;rounded=0;sketch=1;jiggle=2;curveFitting=1;orthogonalLoop=1;jettySize=auto;html=1;exitX=0.5;exitY=1;exitDx=0;exitDy=0;strokeColor=default;strokeWidth=3;align=center;verticalAlign=middle;fontFamily=Helvetica;fontSize=12;fontColor=default;labelBorderColor=none;labelBackgroundColor=default;endArrow=classic;" parent="1" source="T2wt9KZi8Y2AyrN_D059-3" target="T2wt9KZi8Y2AyrN_D059-7" edge="1">
          <mxGeometry relative="1" as="geometry">
            <mxPoint x="235.52941176470586" y="1223.4706025965074" as="targetPoint" />
          </mxGeometry>
        </mxCell>
        <mxCell id="T2wt9KZi8Y2AyrN_D059-3" value="&lt;font face=&quot;Comic Sans MS&quot;&gt;&lt;span style=&quot;font-size: 24px;&quot;&gt;&lt;b&gt;PromptTemplate&lt;/b&gt;&lt;/span&gt;&lt;/font&gt;" style="rounded=1;whiteSpace=wrap;html=1;gradientColor=none;textShadow=0;fillStyle=hatch;fillColor=#f8cdcc;glass=0;shadow=0;labelBorderColor=none;strokeColor=#b43427;strokeWidth=2;perimeterSpacing=0;sketch=1;curveFitting=1;jiggle=2;" parent="1" vertex="1">
          <mxGeometry x="133" y="1083" width="206" height="92" as="geometry" />
        </mxCell>
        <mxCell id="T2wt9KZi8Y2AyrN_D059-12" value="" style="edgeStyle=orthogonalEdgeStyle;shape=connector;rounded=0;sketch=1;jiggle=2;curveFitting=1;orthogonalLoop=1;jettySize=auto;html=1;strokeColor=default;strokeWidth=3;align=center;verticalAlign=middle;fontFamily=Helvetica;fontSize=12;fontColor=default;labelBorderColor=none;labelBackgroundColor=default;endArrow=classic;" parent="1" source="T2wt9KZi8Y2AyrN_D059-7" target="T2wt9KZi8Y2AyrN_D059-11" edge="1">
          <mxGeometry relative="1" as="geometry" />
        </mxCell>
        <mxCell id="T2wt9KZi8Y2AyrN_D059-7" value="&lt;font face=&quot;Comic Sans MS&quot;&gt;&lt;span style=&quot;font-size: 24px;&quot;&gt;&lt;b&gt;LLM&lt;/b&gt;&lt;/span&gt;&lt;/font&gt;" style="ellipse;whiteSpace=wrap;html=1;fillColor=#e7e6f1;strokeColor=#908f8f;fillStyle=hatch;strokeWidth=2;perimeterSpacing=0;sketch=1;curveFitting=1;jiggle=2;" parent="1" vertex="1">
          <mxGeometry x="156" y="1251" width="161" height="93" as="geometry" />
        </mxCell>
        <mxCell id="T2wt9KZi8Y2AyrN_D059-10" style="edgeStyle=orthogonalEdgeStyle;shape=connector;rounded=0;sketch=1;jiggle=2;curveFitting=1;orthogonalLoop=1;jettySize=auto;html=1;strokeColor=default;strokeWidth=3;align=center;verticalAlign=middle;fontFamily=Helvetica;fontSize=12;fontColor=default;labelBorderColor=none;labelBackgroundColor=default;endArrow=classic;" parent="1" source="T2wt9KZi8Y2AyrN_D059-9" target="T2wt9KZi8Y2AyrN_D059-7" edge="1">
          <mxGeometry relative="1" as="geometry" />
        </mxCell>
        <mxCell id="T2wt9KZi8Y2AyrN_D059-9" value="&lt;font face=&quot;Comic Sans MS&quot;&gt;&lt;span style=&quot;font-size: 24px;&quot;&gt;&lt;b&gt;Stop World:&lt;/b&gt;&lt;/span&gt;&lt;/font&gt;&lt;div&gt;&lt;font face=&quot;Comic Sans MS&quot;&gt;&lt;span style=&quot;font-size: 24px;&quot;&gt;&lt;b&gt;Observation&lt;/b&gt;&lt;/span&gt;&lt;/font&gt;&lt;/div&gt;" style="ellipse;whiteSpace=wrap;html=1;fillColor=#86c785;strokeColor=#378b3a;fillStyle=hatch;strokeWidth=2;perimeterSpacing=0;sketch=1;curveFitting=1;jiggle=2;" parent="1" vertex="1">
          <mxGeometry x="454" y="1243" width="170" height="108.5" as="geometry" />
        </mxCell>
        <mxCell id="T2wt9KZi8Y2AyrN_D059-14" style="edgeStyle=orthogonalEdgeStyle;shape=connector;rounded=0;sketch=1;jiggle=2;curveFitting=1;orthogonalLoop=1;jettySize=auto;html=1;exitX=0.5;exitY=1;exitDx=0;exitDy=0;strokeColor=default;strokeWidth=3;align=center;verticalAlign=middle;fontFamily=Helvetica;fontSize=12;fontColor=default;labelBorderColor=none;labelBackgroundColor=default;endArrow=classic;" parent="1" source="T2wt9KZi8Y2AyrN_D059-11" target="T2wt9KZi8Y2AyrN_D059-13" edge="1">
          <mxGeometry relative="1" as="geometry" />
        </mxCell>
        <mxCell id="T2wt9KZi8Y2AyrN_D059-11" value="&lt;font face=&quot;Comic Sans MS&quot;&gt;&lt;span style=&quot;font-size: 24px;&quot;&gt;&lt;b&gt;ReAct Signle-Input Output Parser&lt;/b&gt;&lt;/span&gt;&lt;/font&gt;" style="rounded=1;whiteSpace=wrap;html=1;gradientColor=none;textShadow=0;fillStyle=hatch;fillColor=#d9e7fc;glass=0;shadow=0;labelBorderColor=none;strokeColor=#6a8ebf;strokeWidth=2;perimeterSpacing=0;sketch=1;curveFitting=1;jiggle=2;" parent="1" vertex="1">
          <mxGeometry x="106" y="1408" width="261" height="101" as="geometry" />
        </mxCell>
        <mxCell id="T2wt9KZi8Y2AyrN_D059-29" style="edgeStyle=orthogonalEdgeStyle;shape=connector;rounded=0;sketch=1;jiggle=2;curveFitting=1;orthogonalLoop=1;jettySize=auto;html=1;exitX=1;exitY=0.5;exitDx=0;exitDy=0;strokeColor=default;strokeWidth=3;align=center;verticalAlign=middle;fontFamily=Helvetica;fontSize=12;fontColor=default;labelBorderColor=none;labelBackgroundColor=default;endArrow=classic;" parent="1" source="T2wt9KZi8Y2AyrN_D059-13" target="T2wt9KZi8Y2AyrN_D059-26" edge="1">
          <mxGeometry relative="1" as="geometry" />
        </mxCell>
        <mxCell id="T2wt9KZi8Y2AyrN_D059-31" style="edgeStyle=orthogonalEdgeStyle;shape=connector;rounded=0;sketch=1;jiggle=2;curveFitting=1;orthogonalLoop=1;jettySize=auto;html=1;exitX=0;exitY=0.5;exitDx=0;exitDy=0;entryX=0.5;entryY=0;entryDx=0;entryDy=0;strokeColor=default;strokeWidth=3;align=center;verticalAlign=middle;fontFamily=Helvetica;fontSize=12;fontColor=default;labelBorderColor=none;labelBackgroundColor=default;endArrow=classic;" parent="1" source="T2wt9KZi8Y2AyrN_D059-13" target="T2wt9KZi8Y2AyrN_D059-27" edge="1">
          <mxGeometry relative="1" as="geometry" />
        </mxCell>
        <mxCell id="T2wt9KZi8Y2AyrN_D059-13" value="&lt;font style=&quot;font-size: 24px;&quot; face=&quot;Comic Sans MS&quot;&gt;&lt;b&gt;If Dataclass=AgentAction&lt;/b&gt;&lt;/font&gt;" style="rhombus;whiteSpace=wrap;html=1;rounded=1;shadow=0;glass=0;sketch=1;jiggle=2;fillStyle=hatch;curveFitting=1;strokeColor=#b43427;strokeWidth=2;align=center;verticalAlign=middle;fontFamily=Helvetica;fontSize=12;fontColor=default;labelBorderColor=none;labelBackgroundColor=default;fillColor=#f8cdcc;gradientColor=none;" parent="1" vertex="1">
          <mxGeometry x="18" y="1573" width="437" height="152" as="geometry" />
        </mxCell>
        <mxCell id="T2wt9KZi8Y2AyrN_D059-18" value="&lt;font face=&quot;Comic Sans MS&quot; style=&quot;font-size: 24px;&quot;&gt;&lt;b&gt;No&lt;/b&gt;&lt;/font&gt;&lt;div&gt;&lt;font face=&quot;Comic Sans MS&quot; style=&quot;font-size: 24px;&quot;&gt;&lt;b&gt;i.e DataClass=AgentFinish&lt;/b&gt;&lt;/font&gt;&lt;/div&gt;" style="text;html=1;align=center;verticalAlign=middle;whiteSpace=wrap;rounded=0;fontFamily=Helvetica;fontSize=12;fontColor=default;labelBorderColor=none;" parent="1" vertex="1">
          <mxGeometry x="-288" y="1533" width="360" height="116" as="geometry" />
        </mxCell>
        <mxCell id="T2wt9KZi8Y2AyrN_D059-24" style="edgeStyle=orthogonalEdgeStyle;shape=connector;rounded=0;sketch=1;jiggle=2;curveFitting=1;orthogonalLoop=1;jettySize=auto;html=1;exitX=0.5;exitY=0;exitDx=0;exitDy=0;entryX=0.5;entryY=1;entryDx=0;entryDy=0;strokeColor=default;strokeWidth=3;align=center;verticalAlign=middle;fontFamily=Helvetica;fontSize=12;fontColor=default;labelBorderColor=none;labelBackgroundColor=default;endArrow=classic;" parent="1" source="T2wt9KZi8Y2AyrN_D059-20" target="T2wt9KZi8Y2AyrN_D059-23" edge="1">
          <mxGeometry relative="1" as="geometry" />
        </mxCell>
        <mxCell id="T2wt9KZi8Y2AyrN_D059-20" value="&lt;font face=&quot;Comic Sans MS&quot;&gt;&lt;span style=&quot;font-size: 24px;&quot;&gt;&lt;b&gt;Add Tool Invokation and Tool output to {intermediate_steps} in log format&lt;/b&gt;&lt;/span&gt;&lt;/font&gt;" style="rounded=1;whiteSpace=wrap;html=1;gradientColor=none;textShadow=0;fillStyle=hatch;fillColor=#d9e7fc;glass=0;shadow=0;labelBorderColor=none;strokeColor=#6a8ebf;strokeWidth=2;perimeterSpacing=0;sketch=1;curveFitting=1;jiggle=2;" parent="1" vertex="1">
          <mxGeometry x="911" y="1578" width="388" height="144" as="geometry" />
        </mxCell>
        <mxCell id="T2wt9KZi8Y2AyrN_D059-25" style="edgeStyle=orthogonalEdgeStyle;shape=connector;rounded=0;sketch=1;jiggle=2;curveFitting=1;orthogonalLoop=1;jettySize=auto;html=1;entryX=1;entryY=0.5;entryDx=0;entryDy=0;strokeColor=default;strokeWidth=3;align=center;verticalAlign=middle;fontFamily=Helvetica;fontSize=12;fontColor=default;labelBorderColor=none;labelBackgroundColor=default;endArrow=classic;" parent="1" source="T2wt9KZi8Y2AyrN_D059-23" target="T2wt9KZi8Y2AyrN_D059-3" edge="1">
          <mxGeometry relative="1" as="geometry">
            <Array as="points">
              <mxPoint x="1107" y="1129" />
            </Array>
          </mxGeometry>
        </mxCell>
        <mxCell id="T2wt9KZi8Y2AyrN_D059-23" value="&lt;font face=&quot;Comic Sans MS&quot;&gt;&lt;span style=&quot;font-size: 24px;&quot;&gt;&lt;b&gt;Format it to text and add it to {agent_scratchpad}&lt;/b&gt;&lt;/span&gt;&lt;/font&gt;" style="rounded=1;whiteSpace=wrap;html=1;gradientColor=none;textShadow=0;fillStyle=hatch;fillColor=#f8cdcc;glass=0;shadow=0;labelBorderColor=none;strokeColor=#b43427;strokeWidth=2;perimeterSpacing=0;sketch=1;curveFitting=1;jiggle=2;" parent="1" vertex="1">
          <mxGeometry x="922" y="1261" width="369" height="116" as="geometry" />
        </mxCell>
        <mxCell id="T2wt9KZi8Y2AyrN_D059-30" style="edgeStyle=orthogonalEdgeStyle;shape=connector;rounded=0;sketch=1;jiggle=2;curveFitting=1;orthogonalLoop=1;jettySize=auto;html=1;exitX=1;exitY=0.5;exitDx=0;exitDy=0;entryX=0;entryY=0.5;entryDx=0;entryDy=0;strokeColor=default;strokeWidth=3;align=center;verticalAlign=middle;fontFamily=Helvetica;fontSize=12;fontColor=default;labelBorderColor=none;labelBackgroundColor=default;endArrow=classic;" parent="1" source="T2wt9KZi8Y2AyrN_D059-26" target="T2wt9KZi8Y2AyrN_D059-20" edge="1">
          <mxGeometry relative="1" as="geometry" />
        </mxCell>
        <mxCell id="T2wt9KZi8Y2AyrN_D059-26" value="&lt;b style=&quot;font-family: &amp;quot;Comic Sans MS&amp;quot;; font-size: 24px;&quot;&gt;Invoke the Tool&lt;/b&gt;" style="rounded=1;whiteSpace=wrap;html=1;gradientColor=none;textShadow=0;fillStyle=hatch;fillColor=#f7d036;glass=0;shadow=0;labelBorderColor=none;strokeColor=#ddc374;strokeWidth=2;perimeterSpacing=0;sketch=1;curveFitting=1;jiggle=2;" parent="1" vertex="1">
          <mxGeometry x="590" y="1583" width="210" height="135" as="geometry" />
        </mxCell>
        <mxCell id="T2wt9KZi8Y2AyrN_D059-27" value="&lt;b style=&quot;font-family: &amp;quot;Comic Sans MS&amp;quot;; font-size: 24px;&quot;&gt;Send thr Final Output&lt;/b&gt;" style="rounded=1;whiteSpace=wrap;html=1;gradientColor=none;textShadow=0;fillStyle=hatch;fillColor=#f7d036;glass=0;shadow=0;labelBorderColor=none;strokeColor=#ddc374;strokeWidth=2;perimeterSpacing=0;sketch=1;curveFitting=1;jiggle=2;" parent="1" vertex="1">
          <mxGeometry x="-215" y="1742" width="213" height="132" as="geometry" />
        </mxCell>
        <mxCell id="TSJkHPPt90B-xptUscah-6" style="edgeStyle=orthogonalEdgeStyle;shape=connector;rounded=0;sketch=1;jiggle=2;curveFitting=1;orthogonalLoop=1;jettySize=auto;html=1;exitX=1;exitY=0.5;exitDx=0;exitDy=0;entryX=0;entryY=0.5;entryDx=0;entryDy=0;strokeColor=default;strokeWidth=3;align=center;verticalAlign=middle;fontFamily=Helvetica;fontSize=12;fontColor=default;labelBorderColor=none;labelBackgroundColor=default;endArrow=classic;" parent="1" source="TSJkHPPt90B-xptUscah-2" target="TSJkHPPt90B-xptUscah-3" edge="1">
          <mxGeometry relative="1" as="geometry" />
        </mxCell>
        <mxCell id="TSJkHPPt90B-xptUscah-8" style="edgeStyle=orthogonalEdgeStyle;shape=connector;rounded=0;sketch=1;jiggle=2;curveFitting=1;orthogonalLoop=1;jettySize=auto;html=1;exitX=1;exitY=0.5;exitDx=0;exitDy=0;entryX=0;entryY=0.5;entryDx=0;entryDy=0;strokeColor=default;strokeWidth=3;align=center;verticalAlign=middle;fontFamily=Helvetica;fontSize=12;fontColor=default;labelBorderColor=none;labelBackgroundColor=default;endArrow=classic;" parent="1" source="TSJkHPPt90B-xptUscah-2" target="TSJkHPPt90B-xptUscah-7" edge="1">
          <mxGeometry relative="1" as="geometry" />
        </mxCell>
        <mxCell id="TSJkHPPt90B-xptUscah-2" value="&lt;font face=&quot;Comic Sans MS&quot;&gt;&lt;span style=&quot;font-size: 24px;&quot;&gt;&lt;b&gt;开源项目&lt;/b&gt;&lt;/span&gt;&lt;/font&gt;" style="rounded=1;whiteSpace=wrap;html=1;gradientColor=none;textShadow=0;fillStyle=hatch;fillColor=#d9e7fc;glass=0;shadow=0;labelBorderColor=none;strokeColor=#6a8ebf;strokeWidth=2;perimeterSpacing=0;sketch=1;curveFitting=1;jiggle=2;" parent="1" vertex="1">
          <mxGeometry x="-4" y="2002" width="261" height="101" as="geometry" />
        </mxCell>
        <mxCell id="TSJkHPPt90B-xptUscah-3" value="&lt;font face=&quot;Comic Sans MS&quot;&gt;&lt;span style=&quot;font-size: 24px;&quot;&gt;&lt;b&gt;package引入&lt;/b&gt;&lt;/span&gt;&lt;/font&gt;&lt;div&gt;&lt;font face=&quot;Comic Sans MS&quot;&gt;&lt;span style=&quot;font-size: 24px;&quot;&gt;&lt;b&gt;(同步更新)&lt;/b&gt;&lt;/span&gt;&lt;/font&gt;&lt;/div&gt;" style="rounded=1;whiteSpace=wrap;html=1;gradientColor=none;textShadow=0;fillStyle=hatch;fillColor=#d9e7fc;glass=0;shadow=0;labelBorderColor=none;strokeColor=#6a8ebf;strokeWidth=2;perimeterSpacing=0;sketch=1;curveFitting=1;jiggle=2;" parent="1" vertex="1">
          <mxGeometry x="353" y="1865" width="261" height="101" as="geometry" />
        </mxCell>
        <mxCell id="TSJkHPPt90B-xptUscah-13" style="edgeStyle=orthogonalEdgeStyle;shape=connector;rounded=0;sketch=1;jiggle=2;curveFitting=1;orthogonalLoop=1;jettySize=auto;html=1;exitX=1;exitY=0.5;exitDx=0;exitDy=0;entryX=0;entryY=0.5;entryDx=0;entryDy=0;strokeColor=default;strokeWidth=3;align=center;verticalAlign=middle;fontFamily=Helvetica;fontSize=12;fontColor=default;labelBorderColor=none;labelBackgroundColor=default;endArrow=classic;" parent="1" source="TSJkHPPt90B-xptUscah-7" target="TSJkHPPt90B-xptUscah-9" edge="1">
          <mxGeometry relative="1" as="geometry" />
        </mxCell>
        <mxCell id="TSJkHPPt90B-xptUscah-14" style="edgeStyle=orthogonalEdgeStyle;shape=connector;rounded=0;sketch=1;jiggle=2;curveFitting=1;orthogonalLoop=1;jettySize=auto;html=1;exitX=1;exitY=0.5;exitDx=0;exitDy=0;strokeColor=default;strokeWidth=3;align=center;verticalAlign=middle;fontFamily=Helvetica;fontSize=12;fontColor=default;labelBorderColor=none;labelBackgroundColor=default;endArrow=classic;" parent="1" source="TSJkHPPt90B-xptUscah-7" target="TSJkHPPt90B-xptUscah-10" edge="1">
          <mxGeometry relative="1" as="geometry" />
        </mxCell>
        <mxCell id="TSJkHPPt90B-xptUscah-15" style="edgeStyle=orthogonalEdgeStyle;shape=connector;rounded=0;sketch=1;jiggle=2;curveFitting=1;orthogonalLoop=1;jettySize=auto;html=1;exitX=1;exitY=0.5;exitDx=0;exitDy=0;entryX=0;entryY=0.5;entryDx=0;entryDy=0;strokeColor=default;strokeWidth=3;align=center;verticalAlign=middle;fontFamily=Helvetica;fontSize=12;fontColor=default;labelBorderColor=none;labelBackgroundColor=default;endArrow=classic;" parent="1" source="TSJkHPPt90B-xptUscah-7" target="TSJkHPPt90B-xptUscah-12" edge="1">
          <mxGeometry relative="1" as="geometry" />
        </mxCell>
        <mxCell id="TSJkHPPt90B-xptUscah-7" value="&lt;font face=&quot;Comic Sans MS&quot;&gt;&lt;span style=&quot;font-size: 24px;&quot;&gt;&lt;b&gt;二次开发&lt;/b&gt;&lt;/span&gt;&lt;/font&gt;" style="rounded=1;whiteSpace=wrap;html=1;gradientColor=none;textShadow=0;fillStyle=hatch;fillColor=#d9e7fc;glass=0;shadow=0;labelBorderColor=none;strokeColor=#6a8ebf;strokeWidth=2;perimeterSpacing=0;sketch=1;curveFitting=1;jiggle=2;" parent="1" vertex="1">
          <mxGeometry x="352" y="2145" width="261" height="101" as="geometry" />
        </mxCell>
        <mxCell id="TSJkHPPt90B-xptUscah-9" value="&lt;font face=&quot;Comic Sans MS&quot;&gt;&lt;span style=&quot;font-size: 24px;&quot;&gt;&lt;b&gt;插件&lt;/b&gt;&lt;/span&gt;&lt;/font&gt;&lt;div&gt;&lt;font face=&quot;Comic Sans MS&quot;&gt;&lt;span style=&quot;font-size: 24px;&quot;&gt;&lt;b&gt;(避免官仓更新冲突)&lt;/b&gt;&lt;/span&gt;&lt;/font&gt;&lt;/div&gt;" style="rounded=1;whiteSpace=wrap;html=1;gradientColor=none;textShadow=0;fillStyle=hatch;fillColor=#d9e7fc;glass=0;shadow=0;labelBorderColor=none;strokeColor=#6a8ebf;strokeWidth=2;perimeterSpacing=0;sketch=1;curveFitting=1;jiggle=2;" parent="1" vertex="1">
          <mxGeometry x="747" y="1952" width="261" height="101" as="geometry" />
        </mxCell>
        <mxCell id="TSJkHPPt90B-xptUscah-10" value="&lt;font face=&quot;Comic Sans MS&quot;&gt;&lt;span style=&quot;font-size: 24px;&quot;&gt;&lt;b&gt;模块化开发&lt;/b&gt;&lt;/span&gt;&lt;/font&gt;" style="rounded=1;whiteSpace=wrap;html=1;gradientColor=none;textShadow=0;fillStyle=hatch;fillColor=#d9e7fc;glass=0;shadow=0;labelBorderColor=none;strokeColor=#6a8ebf;strokeWidth=2;perimeterSpacing=0;sketch=1;curveFitting=1;jiggle=2;" parent="1" vertex="1">
          <mxGeometry x="764" y="2145" width="261" height="101" as="geometry" />
        </mxCell>
        <mxCell id="TSJkHPPt90B-xptUscah-11" value="" style="shape=image;verticalLabelPosition=bottom;labelBackgroundColor=default;verticalAlign=top;aspect=fixed;imageAspect=0;image=https://hustyichi.github.io/img/in-post/second-dev/custom_tool.png;" parent="1" vertex="1">
          <mxGeometry x="1107" y="1815" width="353" height="283.51" as="geometry" />
        </mxCell>
        <mxCell id="TSJkHPPt90B-xptUscah-12" value="&lt;font face=&quot;Comic Sans MS&quot;&gt;&lt;span style=&quot;font-size: 24px;&quot;&gt;&lt;b&gt;直接二次开发&lt;/b&gt;&lt;/span&gt;&lt;/font&gt;" style="rounded=1;whiteSpace=wrap;html=1;gradientColor=none;textShadow=0;fillStyle=hatch;fillColor=#d9e7fc;glass=0;shadow=0;labelBorderColor=none;strokeColor=#6a8ebf;strokeWidth=2;perimeterSpacing=0;sketch=1;curveFitting=1;jiggle=2;" parent="1" vertex="1">
          <mxGeometry x="748" y="2357" width="261" height="101" as="geometry" />
        </mxCell>
        <mxCell id="ejXNSR-Hg2a1APHk18hN-32" style="edgeStyle=orthogonalEdgeStyle;shape=connector;rounded=0;sketch=1;jiggle=2;curveFitting=1;orthogonalLoop=1;jettySize=auto;html=1;entryX=0;entryY=0.5;entryDx=0;entryDy=0;strokeColor=default;strokeWidth=3;align=center;verticalAlign=middle;fontFamily=Helvetica;fontSize=12;fontColor=default;labelBorderColor=none;labelBackgroundColor=default;endArrow=classic;" parent="1" source="ejXNSR-Hg2a1APHk18hN-2" target="ejXNSR-Hg2a1APHk18hN-30" edge="1">
          <mxGeometry relative="1" as="geometry" />
        </mxCell>
        <mxCell id="ejXNSR-Hg2a1APHk18hN-2" value="&lt;font face=&quot;Comic Sans MS&quot;&gt;&lt;span style=&quot;font-size: 24px;&quot;&gt;&lt;b&gt;图像&lt;/b&gt;&lt;/span&gt;&lt;/font&gt;" style="rounded=1;whiteSpace=wrap;html=1;gradientColor=none;textShadow=0;fillStyle=hatch;fillColor=#d9e7fc;glass=0;shadow=0;labelBorderColor=none;strokeColor=#6a8ebf;strokeWidth=2;perimeterSpacing=0;sketch=1;curveFitting=1;jiggle=2;" parent="1" vertex="1">
          <mxGeometry x="1457" y="1190" width="139" height="108" as="geometry" />
        </mxCell>
        <mxCell id="ejXNSR-Hg2a1APHk18hN-10" style="edgeStyle=orthogonalEdgeStyle;shape=connector;rounded=0;sketch=1;jiggle=2;curveFitting=1;orthogonalLoop=1;jettySize=auto;html=1;exitX=1;exitY=0.5;exitDx=0;exitDy=0;strokeColor=default;strokeWidth=3;align=center;verticalAlign=middle;fontFamily=Helvetica;fontSize=12;fontColor=default;labelBorderColor=none;labelBackgroundColor=default;endArrow=classic;" parent="1" source="ejXNSR-Hg2a1APHk18hN-39" target="ejXNSR-Hg2a1APHk18hN-9" edge="1">
          <mxGeometry relative="1" as="geometry">
            <mxPoint x="2407" y="1245.0000000000005" as="sourcePoint" />
          </mxGeometry>
        </mxCell>
        <mxCell id="ejXNSR-Hg2a1APHk18hN-24" style="edgeStyle=orthogonalEdgeStyle;shape=connector;rounded=0;sketch=1;jiggle=2;curveFitting=1;orthogonalLoop=1;jettySize=auto;html=1;exitX=0.5;exitY=0;exitDx=0;exitDy=0;entryX=0.5;entryY=0;entryDx=0;entryDy=0;strokeColor=default;strokeWidth=3;align=center;verticalAlign=middle;fontFamily=Helvetica;fontSize=12;fontColor=default;labelBorderColor=none;labelBackgroundColor=default;endArrow=classic;" parent="1" source="ejXNSR-Hg2a1APHk18hN-9" target="ejXNSR-Hg2a1APHk18hN-39" edge="1">
          <mxGeometry relative="1" as="geometry">
            <mxPoint x="2331" y="1191" as="targetPoint" />
          </mxGeometry>
        </mxCell>
        <mxCell id="ejXNSR-Hg2a1APHk18hN-25" style="edgeStyle=orthogonalEdgeStyle;shape=connector;rounded=0;sketch=1;jiggle=2;curveFitting=1;orthogonalLoop=1;jettySize=auto;html=1;exitX=1;exitY=0.5;exitDx=0;exitDy=0;strokeColor=default;strokeWidth=3;align=center;verticalAlign=middle;fontFamily=Helvetica;fontSize=12;fontColor=default;labelBorderColor=none;labelBackgroundColor=default;endArrow=classic;dashed=1;dashPattern=12 12;entryX=0.5;entryY=0;entryDx=0;entryDy=0;" parent="1" source="ejXNSR-Hg2a1APHk18hN-9" target="ejXNSR-Hg2a1APHk18hN-37" edge="1">
          <mxGeometry relative="1" as="geometry">
            <mxPoint x="2908" y="1282" as="targetPoint" />
          </mxGeometry>
        </mxCell>
        <mxCell id="ejXNSR-Hg2a1APHk18hN-9" value="&lt;font face=&quot;Comic Sans MS&quot;&gt;&lt;span style=&quot;font-size: 24px;&quot;&gt;&lt;b&gt;大步长&lt;/b&gt;&lt;/span&gt;&lt;/font&gt;&lt;b style=&quot;font-size: 24px; font-family: &amp;quot;Comic Sans MS&amp;quot;; background-color: initial;&quot;&gt;补偿&lt;/b&gt;" style="rounded=1;whiteSpace=wrap;html=1;gradientColor=none;textShadow=0;fillStyle=hatch;fillColor=#d9e7fc;glass=0;shadow=0;labelBorderColor=none;strokeColor=#6a8ebf;strokeWidth=2;perimeterSpacing=0;sketch=1;curveFitting=1;jiggle=2;" parent="1" vertex="1">
          <mxGeometry x="2493" y="1116" width="252" height="108" as="geometry" />
        </mxCell>
        <mxCell id="ejXNSR-Hg2a1APHk18hN-31" style="edgeStyle=orthogonalEdgeStyle;shape=connector;rounded=0;sketch=1;jiggle=2;curveFitting=1;orthogonalLoop=1;jettySize=auto;html=1;exitX=1;exitY=0.5;exitDx=0;exitDy=0;strokeColor=default;strokeWidth=3;align=center;verticalAlign=middle;fontFamily=Helvetica;fontSize=12;fontColor=default;labelBorderColor=none;labelBackgroundColor=default;endArrow=classic;entryX=0;entryY=0.5;entryDx=0;entryDy=0;" parent="1" source="ejXNSR-Hg2a1APHk18hN-14" target="ejXNSR-Hg2a1APHk18hN-37" edge="1">
          <mxGeometry relative="1" as="geometry">
            <mxPoint x="2816" y="1344" as="targetPoint" />
          </mxGeometry>
        </mxCell>
        <mxCell id="ejXNSR-Hg2a1APHk18hN-14" value="&lt;font face=&quot;Comic Sans MS&quot;&gt;&lt;span style=&quot;font-size: 24px;&quot;&gt;&lt;b&gt;图像角度旋转&lt;/b&gt;&lt;/span&gt;&lt;/font&gt;" style="rounded=1;whiteSpace=wrap;html=1;gradientColor=none;textShadow=0;fillStyle=hatch;fillColor=#f8cdcc;glass=0;shadow=0;labelBorderColor=none;strokeColor=#b43427;strokeWidth=2;perimeterSpacing=0;sketch=1;curveFitting=1;jiggle=2;" parent="1" vertex="1">
          <mxGeometry x="2494" y="1287" width="253" height="116" as="geometry" />
        </mxCell>
        <mxCell id="ejXNSR-Hg2a1APHk18hN-28" style="edgeStyle=orthogonalEdgeStyle;shape=connector;rounded=0;sketch=1;jiggle=2;curveFitting=1;orthogonalLoop=1;jettySize=auto;html=1;exitX=1;exitY=0.5;exitDx=0;exitDy=0;strokeColor=default;strokeWidth=3;align=center;verticalAlign=middle;fontFamily=Helvetica;fontSize=12;fontColor=default;labelBorderColor=none;labelBackgroundColor=default;endArrow=classic;entryX=0;entryY=0.5;entryDx=0;entryDy=0;" parent="1" source="ejXNSR-Hg2a1APHk18hN-26" target="ejXNSR-Hg2a1APHk18hN-39" edge="1">
          <mxGeometry relative="1" as="geometry">
            <mxPoint x="2255" y="1245.0000000000005" as="targetPoint" />
          </mxGeometry>
        </mxCell>
        <mxCell id="ejXNSR-Hg2a1APHk18hN-26" value="&lt;font face=&quot;Comic Sans MS&quot;&gt;&lt;span style=&quot;font-size: 24px;&quot;&gt;&lt;b&gt;单模板角点检测&lt;/b&gt;&lt;/span&gt;&lt;/font&gt;" style="ellipse;whiteSpace=wrap;html=1;fillColor=#86c785;strokeColor=#378b3a;fillStyle=hatch;strokeWidth=2;perimeterSpacing=0;sketch=1;curveFitting=1;jiggle=2;" parent="1" vertex="1">
          <mxGeometry x="1991" y="1187" width="182" height="115" as="geometry" />
        </mxCell>
        <mxCell id="ejXNSR-Hg2a1APHk18hN-35" style="edgeStyle=orthogonalEdgeStyle;shape=connector;rounded=0;sketch=1;jiggle=2;curveFitting=1;orthogonalLoop=1;jettySize=auto;html=1;exitX=1;exitY=0.5;exitDx=0;exitDy=0;entryX=0;entryY=0.5;entryDx=0;entryDy=0;strokeColor=default;strokeWidth=3;align=center;verticalAlign=middle;fontFamily=Helvetica;fontSize=12;fontColor=default;labelBorderColor=none;labelBackgroundColor=default;endArrow=classic;" parent="1" source="ejXNSR-Hg2a1APHk18hN-30" target="ejXNSR-Hg2a1APHk18hN-34" edge="1">
          <mxGeometry relative="1" as="geometry" />
        </mxCell>
        <mxCell id="ejXNSR-Hg2a1APHk18hN-30" value="&lt;font face=&quot;Comic Sans MS&quot;&gt;&lt;span style=&quot;font-size: 24px;&quot;&gt;&lt;b&gt;模板匹配&lt;/b&gt;&lt;/span&gt;&lt;/font&gt;" style="rounded=1;whiteSpace=wrap;html=1;gradientColor=none;textShadow=0;fillStyle=hatch;fillColor=#f7d036;glass=0;shadow=0;labelBorderColor=none;strokeColor=#FF8000;strokeWidth=2;perimeterSpacing=0;sketch=1;curveFitting=1;jiggle=2;" parent="1" vertex="1">
          <mxGeometry x="1634" y="1190" width="150" height="109" as="geometry" />
        </mxCell>
        <mxCell id="ejXNSR-Hg2a1APHk18hN-20" value="&lt;font face=&quot;Comic Sans MS&quot;&gt;&lt;span style=&quot;font-size: 24px;&quot;&gt;&lt;b&gt;长宽比&lt;/b&gt;&lt;/span&gt;&lt;/font&gt;&lt;div&gt;&lt;font face=&quot;Comic Sans MS&quot;&gt;&lt;span style=&quot;font-size: 24px;&quot;&gt;&lt;b&gt;正交性计算&lt;/b&gt;&lt;/span&gt;&lt;/font&gt;&lt;/div&gt;" style="rounded=1;whiteSpace=wrap;html=1;textShadow=0;fillStyle=hatch;fillColor=#dae8fc;glass=0;shadow=0;labelBorderColor=none;strokeColor=#6c8ebf;strokeWidth=2;perimeterSpacing=0;sketch=1;curveFitting=1;jiggle=2;" parent="1" vertex="1">
          <mxGeometry x="3072" y="1276" width="210" height="135" as="geometry" />
        </mxCell>
        <mxCell id="ejXNSR-Hg2a1APHk18hN-36" style="edgeStyle=orthogonalEdgeStyle;shape=connector;rounded=0;sketch=1;jiggle=2;curveFitting=1;orthogonalLoop=1;jettySize=auto;html=1;entryX=0;entryY=0.5;entryDx=0;entryDy=0;strokeColor=default;strokeWidth=3;align=center;verticalAlign=middle;fontFamily=Helvetica;fontSize=12;fontColor=default;labelBorderColor=none;labelBackgroundColor=default;endArrow=classic;" parent="1" source="ejXNSR-Hg2a1APHk18hN-34" target="ejXNSR-Hg2a1APHk18hN-26" edge="1">
          <mxGeometry relative="1" as="geometry" />
        </mxCell>
        <mxCell id="ejXNSR-Hg2a1APHk18hN-34" value="&lt;font face=&quot;Comic Sans MS&quot;&gt;&lt;span style=&quot;font-size: 24px;&quot;&gt;&lt;b&gt;匹配筛选&lt;/b&gt;&lt;/span&gt;&lt;/font&gt;" style="rounded=1;whiteSpace=wrap;html=1;gradientColor=none;textShadow=0;fillStyle=hatch;fillColor=#f8cdcc;glass=0;shadow=0;labelBorderColor=none;strokeColor=#b43427;strokeWidth=2;perimeterSpacing=0;sketch=1;curveFitting=1;jiggle=2;" parent="1" vertex="1">
          <mxGeometry x="1822" y="1194" width="122" height="101" as="geometry" />
        </mxCell>
        <mxCell id="ejXNSR-Hg2a1APHk18hN-38" style="edgeStyle=orthogonalEdgeStyle;shape=connector;rounded=0;sketch=1;jiggle=2;curveFitting=1;orthogonalLoop=1;jettySize=auto;html=1;exitX=1;exitY=0.5;exitDx=0;exitDy=0;entryX=0;entryY=0.5;entryDx=0;entryDy=0;strokeColor=default;strokeWidth=3;align=center;verticalAlign=middle;fontFamily=Helvetica;fontSize=12;fontColor=default;labelBorderColor=none;labelBackgroundColor=default;endArrow=classic;" parent="1" source="ejXNSR-Hg2a1APHk18hN-37" target="ejXNSR-Hg2a1APHk18hN-20" edge="1">
          <mxGeometry relative="1" as="geometry" />
        </mxCell>
        <mxCell id="ejXNSR-Hg2a1APHk18hN-37" value="&lt;font face=&quot;Comic Sans MS&quot;&gt;&lt;span style=&quot;font-size: 24px;&quot;&gt;&lt;b&gt;分组&lt;/b&gt;&lt;/span&gt;&lt;/font&gt;" style="rounded=1;whiteSpace=wrap;html=1;gradientColor=none;textShadow=0;fillStyle=hatch;fillColor=#f7d036;glass=0;shadow=0;labelBorderColor=none;strokeColor=#ddc374;strokeWidth=2;perimeterSpacing=0;sketch=1;curveFitting=1;jiggle=2;" parent="1" vertex="1">
          <mxGeometry x="2819" y="1282" width="184" height="124" as="geometry" />
        </mxCell>
        <mxCell id="ejXNSR-Hg2a1APHk18hN-39" value="&lt;font style=&quot;font-size: 24px;&quot; face=&quot;Comic Sans MS&quot;&gt;&lt;b&gt;角点角度&lt;/b&gt;&lt;/font&gt;&lt;div&gt;&lt;font style=&quot;font-size: 24px;&quot; face=&quot;Comic Sans MS&quot;&gt;&lt;b&gt;判断&lt;/b&gt;&lt;/font&gt;&lt;/div&gt;" style="rhombus;whiteSpace=wrap;html=1;rounded=1;shadow=0;glass=0;sketch=1;jiggle=2;fillStyle=hatch;curveFitting=1;strokeColor=#b43427;strokeWidth=2;align=center;verticalAlign=middle;fontFamily=Helvetica;fontSize=12;fontColor=default;labelBorderColor=none;labelBackgroundColor=default;fillColor=#f8cdcc;gradientColor=none;" parent="1" vertex="1">
          <mxGeometry x="2216" y="1179" width="214" height="134" as="geometry" />
        </mxCell>
        <mxCell id="ejXNSR-Hg2a1APHk18hN-41" style="edgeStyle=orthogonalEdgeStyle;shape=connector;rounded=0;sketch=1;jiggle=2;curveFitting=1;orthogonalLoop=1;jettySize=auto;html=1;exitX=1;exitY=0.5;exitDx=0;exitDy=0;entryX=-0.009;entryY=0.616;entryDx=0;entryDy=0;entryPerimeter=0;strokeColor=default;strokeWidth=3;align=center;verticalAlign=middle;fontFamily=Helvetica;fontSize=12;fontColor=default;labelBorderColor=none;labelBackgroundColor=default;endArrow=classic;" parent="1" source="ejXNSR-Hg2a1APHk18hN-39" target="ejXNSR-Hg2a1APHk18hN-14" edge="1">
          <mxGeometry relative="1" as="geometry" />
        </mxCell>
        <mxCell id="ejXNSR-Hg2a1APHk18hN-43" value="&lt;font face=&quot;Comic Sans MS&quot; style=&quot;font-size: 24px;&quot;&gt;&lt;b&gt;No&lt;/b&gt;&lt;/font&gt;&lt;div&gt;&lt;font face=&quot;Comic Sans MS&quot; style=&quot;font-size: 24px;&quot;&gt;&lt;b&gt;i.e 非圆特征限制&lt;/b&gt;&lt;/font&gt;&lt;/div&gt;" style="text;html=1;align=center;verticalAlign=middle;whiteSpace=wrap;rounded=0;fontFamily=Helvetica;fontSize=12;fontColor=default;labelBorderColor=none;" parent="1" vertex="1">
          <mxGeometry x="1914" y="1054" width="360" height="116" as="geometry" />
        </mxCell>
        <mxCell id="6wLO1wM4Qv6k_STgGtqq-5" style="edgeStyle=orthogonalEdgeStyle;rounded=0;orthogonalLoop=1;jettySize=auto;html=1;exitX=0.5;exitY=1;exitDx=0;exitDy=0;entryX=0.5;entryY=0;entryDx=0;entryDy=0;" edge="1" parent="1" source="6wLO1wM4Qv6k_STgGtqq-1" target="6wLO1wM4Qv6k_STgGtqq-4">
          <mxGeometry relative="1" as="geometry" />
        </mxCell>
        <mxCell id="6wLO1wM4Qv6k_STgGtqq-1" value="&lt;font face=&quot;Comic Sans MS&quot;&gt;&lt;span style=&quot;font-size: 24px;&quot;&gt;&lt;b&gt;待分析图像&lt;/b&gt;&lt;/span&gt;&lt;/font&gt;" style="rounded=1;whiteSpace=wrap;html=1;gradientColor=none;textShadow=0;fillStyle=hatch;fillColor=#fad7ac;glass=0;shadow=0;labelBorderColor=none;strokeColor=#b8782e;strokeWidth=2;perimeterSpacing=0;sketch=1;curveFitting=1;jiggle=2;" vertex="1" parent="1">
          <mxGeometry x="1629" y="3" width="161" height="105" as="geometry" />
        </mxCell>
        <mxCell id="6wLO1wM4Qv6k_STgGtqq-4" value="&lt;font face=&quot;Comic Sans MS&quot;&gt;&lt;span style=&quot;font-size: 24px;&quot;&gt;&lt;b&gt;分割/降噪&lt;/b&gt;&lt;/span&gt;&lt;/font&gt;" style="rounded=1;whiteSpace=wrap;html=1;gradientColor=none;textShadow=0;fillStyle=hatch;fillColor=#f8cdcc;glass=0;shadow=0;labelBorderColor=none;strokeColor=#b43427;strokeWidth=2;perimeterSpacing=0;sketch=1;curveFitting=1;jiggle=2;" vertex="1" parent="1">
          <mxGeometry x="1621" y="291" width="178" height="91" as="geometry" />
        </mxCell>
        <mxCell id="6wLO1wM4Qv6k_STgGtqq-6" value="&lt;font style=&quot;font-size: 24px;&quot; face=&quot;Comic Sans MS&quot;&gt;&lt;b style=&quot;&quot;&gt;图像&lt;/b&gt;&lt;/font&gt;" style="ellipse;whiteSpace=wrap;html=1;fillColor=#cdecf1;strokeColor=#75bbbf;fillStyle=hatch;strokeWidth=2;perimeterSpacing=0;sketch=1;curveFitting=1;jiggle=2;" vertex="1" parent="1">
          <mxGeometry x="1555" y="164" width="107" height="68" as="geometry" />
        </mxCell>
        <mxCell id="6wLO1wM4Qv6k_STgGtqq-9" value="&lt;font face=&quot;Comic Sans MS&quot; style=&quot;font-size: 24px;&quot;&gt;&lt;b&gt;服务器1&lt;/b&gt;&lt;/font&gt;" style="text;html=1;align=center;verticalAlign=middle;whiteSpace=wrap;rounded=0;fontFamily=Helvetica;fontSize=12;fontColor=default;labelBorderColor=none;" vertex="1" parent="1">
          <mxGeometry x="1420" y="11" width="92" height="40" as="geometry" />
        </mxCell>
        <mxCell id="6wLO1wM4Qv6k_STgGtqq-11" value="&lt;font face=&quot;Comic Sans MS&quot; style=&quot;font-size: 24px;&quot;&gt;&lt;b&gt;服务器2&lt;/b&gt;&lt;/font&gt;" style="text;html=1;align=center;verticalAlign=middle;whiteSpace=wrap;rounded=0;fontFamily=Helvetica;fontSize=12;fontColor=default;labelBorderColor=none;" vertex="1" parent="1">
          <mxGeometry x="1425" y="350" width="92" height="40" as="geometry" />
        </mxCell>
        <mxCell id="6wLO1wM4Qv6k_STgGtqq-12" value="&lt;font face=&quot;Comic Sans MS&quot;&gt;&lt;span style=&quot;font-size: 24px;&quot;&gt;&lt;b&gt;结果&lt;/b&gt;&lt;/span&gt;&lt;/font&gt;&lt;div&gt;&lt;font face=&quot;Comic Sans MS&quot;&gt;&lt;span style=&quot;font-size: 24px;&quot;&gt;&lt;b&gt;图像/图像特征/掩码编码&lt;/b&gt;&lt;/span&gt;&lt;/font&gt;&lt;/div&gt;" style="ellipse;whiteSpace=wrap;html=1;fillColor=#e7e6f1;strokeColor=#908f8f;fillStyle=hatch;strokeWidth=2;perimeterSpacing=0;sketch=1;curveFitting=1;jiggle=2;" vertex="1" parent="1">
          <mxGeometry x="1894" y="154" width="299" height="100" as="geometry" />
        </mxCell>
        <mxCell id="6wLO1wM4Qv6k_STgGtqq-13" value="" style="whiteSpace=wrap;html=1;rounded=1;shadow=0;glass=0;sketch=1;jiggle=2;fillStyle=hatch;curveFitting=1;strokeColor=#9a9fa1;strokeWidth=2;align=center;verticalAlign=middle;fontFamily=Helvetica;fontSize=12;fontColor=default;labelBorderColor=none;fillColor=#dff2f9;gradientColor=none;arcSize=21;imageAspect=0;" vertex="1" parent="1">
          <mxGeometry x="2257" y="-69" width="336" height="211" as="geometry" />
        </mxCell>
        <mxCell id="6wLO1wM4Qv6k_STgGtqq-14" value="&lt;font face=&quot;Comic Sans MS&quot; style=&quot;font-size: 24px;&quot;&gt;&lt;b&gt;前端鼠标交互&lt;/b&gt;&lt;/font&gt;&lt;div&gt;&lt;font face=&quot;Comic Sans MS&quot; style=&quot;font-size: 24px;&quot;&gt;&lt;b&gt;(本地或请求)&lt;/b&gt;&lt;/font&gt;&lt;/div&gt;" style="text;html=1;align=center;verticalAlign=middle;whiteSpace=wrap;rounded=0;fontFamily=Helvetica;fontSize=12;fontColor=default;labelBorderColor=none;" vertex="1" parent="1">
          <mxGeometry x="2599" y="14" width="159" height="39" as="geometry" />
        </mxCell>
        <mxCell id="6wLO1wM4Qv6k_STgGtqq-15" value="&lt;div&gt;&lt;font face=&quot;Comic Sans MS&quot;&gt;&lt;span style=&quot;font-size: 24px;&quot;&gt;&lt;b&gt;实时计算&lt;/b&gt;&lt;/span&gt;&lt;/font&gt;&lt;/div&gt;&lt;div&gt;&lt;font face=&quot;Comic Sans MS&quot;&gt;&lt;span style=&quot;font-size: 24px;&quot;&gt;&lt;b&gt;掩码编码&lt;/b&gt;&lt;/span&gt;&lt;/font&gt;&lt;/div&gt;" style="ellipse;whiteSpace=wrap;html=1;fillColor=#e7e6f1;strokeColor=#908f8f;fillStyle=hatch;strokeWidth=2;perimeterSpacing=0;sketch=1;curveFitting=1;jiggle=2;" vertex="1" parent="1">
          <mxGeometry x="2330" y="44" width="204" height="77" as="geometry" />
        </mxCell>
        <mxCell id="6wLO1wM4Qv6k_STgGtqq-16" value="&lt;font face=&quot;Comic Sans MS&quot;&gt;&lt;span style=&quot;font-size: 24px;&quot;&gt;&lt;b&gt;结果显示&lt;/b&gt;&lt;/span&gt;&lt;/font&gt;&lt;div&gt;&lt;font face=&quot;Comic Sans MS&quot;&gt;&lt;span style=&quot;font-size: 24px;&quot;&gt;&lt;b&gt;图像/分割结果&lt;/b&gt;&lt;/span&gt;&lt;/font&gt;&lt;/div&gt;" style="ellipse;whiteSpace=wrap;html=1;fillColor=#e7e6f1;strokeColor=#908f8f;fillStyle=hatch;strokeWidth=2;perimeterSpacing=0;sketch=1;curveFitting=1;jiggle=2;" vertex="1" parent="1">
          <mxGeometry x="2324" y="-62" width="209" height="78" as="geometry" />
        </mxCell>
      </root>
    </mxGraphModel>
  </diagram>
</mxfile>
